/vscmnt/brussel_pixiu_data/_data_brussel/112/vsc11236/PredSimResults/SUBJ07_Dhondt2024_3seg/weighted-LRposFixed/worker_04.mot
version=1
nRows=4
nColumns=124
inDegrees=yes
endheader
                time	         pelvis_tilt	         pelvis_list	     pelvis_rotation	           pelvis_tx	           pelvis_ty	           pelvis_tz	       hip_flexion_r	     hip_adduction_r	      hip_rotation_r	        knee_angle_r	       ankle_angle_r	    subtalar_angle_r	         mtp_angle_r	       hip_flexion_l	     hip_adduction_l	      hip_rotation_l	        knee_angle_l	       ankle_angle_l	    subtalar_angle_l	         mtp_angle_l	    lumbar_extension	      lumbar_bending	     lumbar_rotation	          arm_flex_r	           arm_add_r	           arm_rot_r	        elbow_flex_r	          arm_flex_l	           arm_add_l	           arm_rot_l	        elbow_flex_l	glut_med1_r/activation	glut_med2_r/activation	glut_med3_r/activation	glut_min1_r/activation	glut_min2_r/activation	glut_min3_r/activation	semimem_r/activation	semiten_r/activation	bifemlh_r/activation	bifemsh_r/activation	    sar_r/activation	add_long_r/activation	add_brev_r/activation	add_mag1_r/activation	add_mag2_r/activation	add_mag3_r/activation	    tfl_r/activation	   pect_r/activation	   grac_r/activation	glut_max1_r/activation	glut_max2_r/activation	glut_max3_r/activation	iliacus_r/activation	  psoas_r/activation	quad_fem_r/activation	    gem_r/activation	   peri_r/activation	rect_fem_r/activation	vas_med_r/activation	vas_int_r/activation	vas_lat_r/activation	med_gas_r/activation	lat_gas_r/activation	 soleus_r/activation	tib_post_r/activation	flex_dig_r/activation	flex_hal_r/activation	tib_ant_r/activation	per_brev_r/activation	per_long_r/activation	per_tert_r/activation	ext_dig_r/activation	ext_hal_r/activation	glut_med1_l/activation	glut_med2_l/activation	glut_med3_l/activation	glut_min1_l/activation	glut_min2_l/activation	glut_min3_l/activation	semimem_l/activation	semiten_l/activation	bifemlh_l/activation	bifemsh_l/activation	    sar_l/activation	add_long_l/activation	add_brev_l/activation	add_mag1_l/activation	add_mag2_l/activation	add_mag3_l/activation	    tfl_l/activation	   pect_l/activation	   grac_l/activation	glut_max1_l/activation	glut_max2_l/activation	glut_max3_l/activation	iliacus_l/activation	  psoas_l/activation	quad_fem_l/activation	    gem_l/activation	   peri_l/activation	rect_fem_l/activation	vas_med_l/activation	vas_int_l/activation	vas_lat_l/activation	med_gas_l/activation	lat_gas_l/activation	 soleus_l/activation	tib_post_l/activation	flex_dig_l/activation	flex_hal_l/activation	tib_ant_l/activation	per_brev_l/activation	per_long_l/activation	per_tert_l/activation	ext_dig_l/activation	ext_hal_l/activation	 ercspn_r/activation	 ercspn_l/activation	 intobl_r/activation	 intobl_l/activation	 extobl_r/activation	 extobl_l/activation	
          1.57654511	         -2.92466451	          0.64075191	         -3.31629150	          1.92338503	          0.84525269	          0.00218655	        -17.77866023	          0.61768744	          8.98048899	         -5.45319477	          4.37793758	         12.63807476	         15.30364445	         28.64801396	          2.29310706	          2.17223168	        -10.88735546	          8.34531934	         -2.49958761	          0.23453032	         -7.01977774	          0.40645811	          1.47426508	         25.45455491	        -13.45456227	         19.24262254	         50.34688839	        -28.41839057	        -14.61157899	          4.99364043	         37.84871497	          0.16145425	          0.08440774	          0.05705759	          0.25057222	          0.20132982	          0.13562220	          0.01175142	          0.01175103	          0.01175040	          0.03749953	          0.09500278	          0.01000006	          0.01000001	          0.01000004	          0.01000018	          0.01000018	          0.39599800	          0.01000012	          0.01000011	          0.01623400	          0.01284331	          0.01000149	          0.23330307	          0.45104065	          0.01622940	          0.01622960	          0.05507377	          0.30801264	          0.01000003	          0.01000004	          0.01000003	          0.35138983	          0.39149454	          0.29500027	          0.28737986	          0.36971672	          0.44713437	          0.01609867	          0.08188648	          0.20533930	          0.01599767	          0.01434344	          0.01622989	          0.01381027	          0.01381020	          0.01000027	          0.01000137	          0.01000021	          0.01000016	          0.22656936	          0.04894825	          0.01175175	          0.01000005	          0.01687003	          0.06486241	          0.13624540	          0.10088683	          0.11548549	          0.10984201	          0.01000003	          0.01612438	          0.06052521	          0.01175236	          0.01175176	          0.07484972	          0.01678776	          0.01560272	          0.01560390	          0.01000017	          0.01000005	          0.01000000	          0.09223162	          0.09186564	          0.07811098	          0.01175169	          0.01175168	          0.01175170	          0.01175169	          0.01000017	          0.01175113	          0.27649916	          0.22367972	          0.14949812	          0.08092939	          0.31751128	          0.03136234	          0.00999999	          0.01476272	          0.01000003	          0.03095462	          0.01000000	          0.11088014	
          1.58705541	         -2.91681089	          0.91710578	         -3.50621400	          1.93891817	          0.84458125	          0.00192764	        -17.73426615	          0.28588441	          8.91289972	         -7.30794929	          3.28657275	         12.95705364	         16.46728339	         28.10704301	          2.78050871	          2.19591128	        -10.89094554	          7.43392977	         -2.59262377	          0.24010128	         -6.86539736	         -0.09415691	          1.53836842	         25.15466366	        -13.46879258	         19.09358693	         51.65189162	        -29.36827389	        -14.57247416	          4.92120333	         37.69799731	          0.19289606	          0.07182588	          0.04855256	          0.21322202	          0.17131950	          0.11540629	          0.01000009	          0.01000000	          0.01000000	          0.03190984	          0.08084163	          0.06742352	          0.03046009	          0.01000008	          0.01000012	          0.01000003	          0.33697035	          0.11589649	          0.01014579	          0.01381417	          0.01092890	          0.01000003	          0.19852680	          0.38380831	          0.01381024	          0.01381042	          0.04686445	          0.27529730	          0.01000002	          0.01000002	          0.01000002	          0.29901149	          0.33313817	          0.26053026	          0.27496679	          0.31460769	          0.39115842	          0.01369900	          0.06968045	          0.18370642	          0.01361305	          0.01220540	          0.01381066	          0.01175171	          0.01175170	          0.01000001	          0.01175172	          0.01175171	          0.01175129	          0.19279683	          0.04165201	          0.01000003	          0.01000002	          0.01435540	          0.05519409	          0.11593669	          0.23523171	          0.20032007	          0.13081582	          0.01000025	          0.01907285	          0.05150332	          0.01000056	          0.01000004	          0.06369262	          0.01622942	          0.01622936	          0.18426002	          0.01000003	          0.01000001	          0.01381028	          0.13199127	          0.11545157	          0.10427447	          0.00999999	          0.00999999	          0.00999999	          0.00999999	          0.01000001	          0.01000000	          0.28660522	          0.19033798	          0.13325232	          0.09343692	          0.34701318	          0.02668748	          0.01411789	          0.01256218	          0.02914642	          0.02634051	          0.01228467	          0.09435229	
          1.59756571	         -2.90545421	          1.19794233	         -3.67921497	          1.95466316	          0.84389327	          0.00167706	        -17.57104892	         -0.03230394	          8.82951747	         -9.36798260	          2.00014260	         13.26556758	         17.61275525	         27.53835173	          3.24524683	          2.25965816	        -11.44688610	          6.18327336	         -2.65697206	          0.24190820	         -6.70337089	         -0.60450221	          1.59248826	         24.72726561	        -13.49111571	         18.91520488	         52.89202688	        -30.08139972	        -14.53714451	          5.08519776	         37.10903402	          0.16414288	          0.06111948	          0.04131529	          0.18143905	          0.14578253	          0.09820377	          0.01155260	          0.01000012	          0.01000061	          0.02715334	          0.06879134	          0.10572813	          0.15145412	          0.01175171	          0.01175180	          0.01175180	          0.28674139	          0.09862098	          0.01173386	          0.01175506	          0.01175132	          0.01175157	          0.16893430	          0.32659765	          0.01175171	          0.01175184	          0.03987881	          0.23426135	          0.03473645	          0.02313265	          0.01175572	          0.25444069	          0.28348043	          0.22169549	          0.23398011	          0.26771213	          0.33285216	          0.01165702	          0.05929385	          0.19343827	          0.01158389	          0.01038605	          0.01175203	          0.01000000	          0.01000000	          0.01000003	          0.01000001	          0.01000001	          0.01000001	          0.16405844	          0.03544335	          0.06181922	          0.01000002	          0.01221562	          0.04696685	          0.18451327	          0.20016802	          0.17046030	          0.11852784	          0.01000002	          0.01623010	          0.11173587	          0.01000003	          0.08335203	          0.06602966	          0.01381027	          0.01381026	          0.20940304	          0.01624746	          0.01000130	          0.01175172	          0.11231659	          0.09824231	          0.08873127	          0.01395405	          0.01584855	          0.01381028	          0.01362495	          0.01175174	          0.01363886	          0.24388370	          0.17197377	          0.14405682	          0.07950917	          0.38848600	          0.02270943	          0.03290742	          0.01068965	          0.02841752	          0.02241418	          0.01381028	          0.08028809	
          1.60807601	         -2.89229495	          1.49696333	         -3.83168218	          1.97047966	          0.84324978	          0.00144911	        -17.25794452	         -0.34368652	          8.72628565	        -11.65749585	          0.48687670	         13.53219185	         18.68210658	         26.92291391	          3.67347403	          2.37870385	        -12.11476264	          4.81884159	         -2.70842292	          0.24079110	         -6.54250576	         -1.13782869	          1.63538011	         24.20035489	        -13.51473741	         18.73015035	         54.02753698	        -30.52999827	        -14.51601005	          5.49921072	         36.08898290	          0.18761515	          0.05200898	          0.03515681	          0.24369305	          0.12405212	          0.08356547	          0.01607827	          0.01000002	          0.01000000	          0.02310585	          0.05853727	          0.12888830	          0.12887832	          0.01000003	          0.01000017	          0.01000015	          0.24399965	          0.08392056	          0.01000004	          0.01000287	          0.01000004	          0.01000003	          0.14375287	          0.27791485	          0.01000000	          0.01000012	          0.03393446	          0.22333771	          0.02955863	          0.01968450	          0.01000341	          0.21651363	          0.24122470	          0.18864945	          0.19910292	          0.22780683	          0.28323706	          0.00999999	          0.08329807	          0.17400224	          0.01000000	          0.00999999	          0.01000028	          0.25150551	          0.26741966	          0.26511810	          0.22879692	          0.11446878	          0.01000014	          0.13960380	          0.08202490	          0.05260444	          0.01381032	          0.01039478	          0.03996595	          0.15700964	          0.17033090	          0.14505147	          0.13843858	          0.01000005	          0.01381088	          0.09508064	          0.21861783	          0.15968442	          0.10946258	          0.01175171	          0.01175170	          0.17818932	          0.01382562	          0.01000004	          0.01000000	          0.09557464	          0.08359827	          0.07550495	          0.01187405	          0.01348616	          0.01175171	          0.01159401	          0.01000002	          0.01160585	          0.43567065	          0.31468509	          0.15750715	          0.45875344	          0.49700284	          0.27973399	          0.07606912	          0.03767855	          0.02418159	          0.01907311	          0.01175171	          0.06832031	
